/** 
 * @file      HornetBuzzer.cpp
 * @brief     
 * @details   
 * @author    Ian Sodersjerna
 * @version   0.0.1
 * @date      2022
 * @pre       
 * @bug       
 * @warning   
 * @copyright GNU Public License.
 */
#include <Arduino.h>
#include "HornetBuzzer.h"


HornetBuzzer::HornetBuzzer(HornetLOGGER *logger):HornetModule(logger) 
{
    logger->debug("HornetBuzzer init!");
    this->pin = 28;
    logger->debug("HornetBuzzer init complete!");
}

int SONG_HARRYPOTTER[] = {


  // Hedwig's theme fromn the Harry Potter Movies
  // Socre from https://musescore.com/user/3811306/scores/4906610
  
  REST, 2, NOTE_D4, 4,
  NOTE_G4, -4, NOTE_AS4, 8, NOTE_A4, 4,
  NOTE_G4, 2, NOTE_D5, 4,
  NOTE_C5, -2, 
  NOTE_A4, -2,
  NOTE_G4, -4, NOTE_AS4, 8, NOTE_A4, 4,
  NOTE_F4, 2, NOTE_GS4, 4,
  NOTE_D4, -1, 
  NOTE_D4, 4,

  NOTE_G4, -4, NOTE_AS4, 8, NOTE_A4, 4, //10
  NOTE_G4, 2, NOTE_D5, 4,
  NOTE_F5, 2, NOTE_E5, 4,
  NOTE_DS5, 2, NOTE_B4, 4,
  NOTE_DS5, -4, NOTE_D5, 8, NOTE_CS5, 4,
  NOTE_CS4, 2, NOTE_B4, 4,
  NOTE_G4, -1,
  NOTE_AS4, 4,
     
  NOTE_D5, 2, NOTE_AS4, 4,//18
  NOTE_D5, 2, NOTE_AS4, 4,
  NOTE_DS5, 2, NOTE_D5, 4,
  NOTE_CS5, 2, NOTE_A4, 4,
  NOTE_AS4, -4, NOTE_D5, 8, NOTE_CS5, 4,
  NOTE_CS4, 2, NOTE_D4, 4,
  NOTE_D5, -1, 
  REST,4, NOTE_AS4,4,  

  NOTE_D5, 2, NOTE_AS4, 4,//26
  NOTE_D5, 2, NOTE_AS4, 4,
  NOTE_F5, 2, NOTE_E5, 4,
  NOTE_DS5, 2, NOTE_B4, 4,
  NOTE_DS5, -4, NOTE_D5, 8, NOTE_CS5, 4,
  NOTE_CS4, 2, NOTE_AS4, 4,
  NOTE_G4, -1, 
  
};

void HornetBuzzer::buzzer_play_hp() {
    int tempo = 144;
    int notes = sizeof(SONG_HARRYPOTTER) / sizeof(SONG_HARRYPOTTER[0]) / 2;


// this calculates the duration of a whole note in ms (60s/tempo)*4 beats
    int wholenote = (60000 * 4) / tempo;

    int divider = 0, noteDuration = 0;
    divider = 0;
    noteDuration = 0;

    for (int thisNote = 0; thisNote < notes * 2; thisNote = thisNote + 2) {
        // calculates the duration of each note
        divider = SONG_HARRYPOTTER[thisNote + 1];
        if (divider > 0) {
            // regular note, just proceed
            noteDuration = (wholenote) / divider;
        } else if (divider < 0) {
            // dotted notes are represented with negative durations!!
            noteDuration = (wholenote) / abs(divider);
            noteDuration *= 1.5; // increases the duration in half for dotted notes
        }

        // we only play the note for 90% of the duration, leaving 10% as a pause
        tone(this->pin, SONG_HARRYPOTTER[thisNote], noteDuration * 0.9);

        // Wait for the specief duration before playing the next note.
        delay(noteDuration);

        // stop the waveform generation before the next note.
        noTone(this->pin);
    }
}